<svg xmlns="http://www.w3.org/2000/svg" width="700" height="700" viewBox="0 0 560 560"><path d="m 185.82335,65.121823 c 30.02,-17.85 64.6,-28.21 99.55,-29.11 12,0.12 24.07,-0.59 36,1.04 21.28,1.64 41.84,8.13 61.5,16.18 8.82,3.92 17.49,8.22 25.73,13.27 2.57,1.53 4.96,3.43 7.82,4.42 8.3,-1.16 16.39,-3.5 24.58,-5.24 10.99,-2.09 21.94,-4.49 33.08,-5.73 11.03,-1.75 22.06,-3.98 33.27,-4 5.6,0.02 11.23,-0.32 16.81,0.3 3.09,0.44 6.77,2.03 7.47,5.42 1.8,11.06 -2.42,21.71 -5.32,32.18 -4.83,14.069997 -10.77,27.709997 -16.62,41.369997 -1.13,-0.47 -2.26,-0.95 -3.35,-1.48 -12.66,-16.43 -29.69,-29.67 -49.21,-36.889997 -20.02,-8.07 -42.33,-9.49 -63.49,-5.9 -16.04,3.85 -32.31,9.119997 -45.34,19.599997 -8.17,5.66 -15.72,12.27 -22.14,19.87 -8.28,11.08 -15.52,23.07 -20.63,35.96 -4.5,16.27 -8.11,33.37 -5.64,50.29 1.24,10.86 3.42,21.7 7.61,31.83 2.23,5.48 5.45,10.47 8.04,15.77 3.43,7.21 8.8,13.22 14.26,18.94 5.87,5.83 11.41,12.14 18.49,16.58 18.24,13.04 40.52,20.99 63.08,20.52 9.18,-0.12 18.47,0.49 27.51,-1.5 9.54,-2.15 19.12,-4.79 27.59,-9.84 9.65,-4.63 18.62,-10.56 26.82,-17.43 5.33,-4.71 9.56,-10.46 13.98,-15.99 6.07,-7.94 11.57,-16.46 14.98,-25.91 0.92,-0.83 1.88,-1.61 2.85,-2.39 1.85,8.86 2.21,17.93 3.49,26.87 0.78,17.85 0.34,35.73 0.17,53.59 -0.86,9.62 -1.59,19.26 -1.99,28.92 -3.94,41.41 -11.36,83.26 -29.31,121.09 -0.71,0.7 -1.43,1.4 -2.15,2.09 -5.13,-4.59 -9.29,-10.11 -14.13,-14.98 -24.03,-24.7 -50.66,-47.1 -80.39,-64.65 -32.18,-19.06 -68.7,-32.45 -106.42,-32.98 -29.68,-0.9 -59.14,6.35 -86.24,18.13 -29.66,12.82 -56.74,30.98 -81.6,51.5 -13.3,10.94 -25.51,23.1 -37.949998,34.98 -4.78,-11.42 -9.66,-22.87 -12.66,-34.91 -4.47,-14.9 -7.74,-30.16 -9.53,-45.61 -3.93,-19.31 -3.86,-39.08 -5.34,-58.65 -0.1,-14.67 -0.23,-29.35 0.05,-44.02 1.14,-12.13 1.37,-24.37 3.75,-36.35 0.78,-3.36 0.45,-7.09 2.21,-10.15 0.28,-0.44 0.85,-1.33 1.14,-1.78 1.94,8.03 5.09,15.82 9.79,22.64 5.83,8.4 11.01,17.43 18.82,24.21 14.159998,15.16 33.449998,24.64 53.299998,29.85 10.08,3.18 20.77,3.31 31.25,3.22 11.53,0.08 23.07,-1.91 33.95,-5.72 8.81,-3.59 17.49,-7.61 25.75,-12.34 13.36,-8.54 24.49,-20.19 33.74,-32.98 11.48,-18.41 19.4,-39.66 19.12,-61.59 0.53,-18.06 -2.42,-36.58 -10.8,-52.74 -5.2,-9.51 -10.42,-19.18 -17.81,-27.2 -6.81,-6.95 -13.44,-14.27 -22.01,-19.11 -14.29,-10.439997 -31.43,-16.559997 -48.88,-18.969997 -8.31,-0.95 -16.7,-0.6 -25.05,-0.55 -10.47,0.13 -20.57,3.12 -30.46,6.27 -9.82,3.29 -18.77,8.609997 -27.29,14.419997 -8.33,4.77 -14.689998,12.11 -21.119998,19.07 -0.86,0.07 -1.73,0.14 -2.59,0.21 -2.49,-5.14 -4.29,-10.59 -6.26,-15.94 -5.15,-13.719997 -10.29,-27.539997 -13.01,-41.979997 -1.19,-5.9 -2.74,-12.17 -0.95,-18.11 1.17,-4.06 5.92,-4.79 9.52,-5.03 8.95,-0.34 17.97,0.07 26.799998,1.69 11.04,1.89 22.29,2.88 33.08,6.02 13.74,3.54 27.81,5.75 41.39,9.94 2.42,0.77 5.16,1.12 7.34,-0.5 z" fill="#74a4b2" transform="translate(-21.297 -36.54) scale(1.01618)"/><path d="M138.91335 95.331823c9.89-3.15 19.99-6.14 30.46-6.27 8.35-.05 16.74-.4 25.05.55 17.45 2.41 34.59 8.53 48.88 18.969997 8.57 4.84 15.2 12.16 22.01 19.11 7.39 8.02 12.61 17.69 17.81 27.2 8.38 16.16 11.33 34.68 10.8 52.74.28 21.93-7.64 43.18-19.12 61.59-9.25 12.79-20.38 24.44-33.74 32.98-8.26 4.73-16.94 8.75-25.75 12.34-10.88 3.81-22.42 5.8-33.95 5.72-10.48.09-21.17-.04-31.25-3.22-19.85-5.21-39.14-14.69-53.299998-29.85-7.81-6.78-12.99-15.81-18.82-24.21-4.7-6.82-7.85-14.61-9.79-22.64-1.79-8.25-4.18-16.4-4.9-24.85-1.87-21.78 2.27-44.11 12.21-63.61 3.64-8.51 9.77-15.52 14.99-23.06 6.43-6.96 12.789998-14.3 21.119998-19.07 8.52-5.81 17.47-11.129997 27.29-14.419997zM393.64335 90.951823c21.16-3.59 43.47-2.17 63.49 5.9 19.52 7.219997 36.55 20.459997 49.21 36.889997 9.22 13.21 17 27.65 20.75 43.42 5.17 21.46 4.34 44.45-2.77 65.38-.74 2.35-1.36 4.74-2.07 7.1-3.41 9.45-8.91 17.97-14.98 25.91-4.42 5.53-8.65 11.28-13.98 15.99-8.2 6.87-17.17 12.8-26.82 17.43-8.47 5.05-18.05 7.69-27.59 9.84-9.04 1.99-18.33 1.38-27.51 1.5-22.56.47-44.84-7.48-63.08-20.52-7.08-4.44-12.62-10.75-18.49-16.58-5.46-5.72-10.83-11.73-14.26-18.94-2.59-5.3-5.81-10.29-8.04-15.77-4.19-10.13-6.37-20.97-7.61-31.83-2.47-16.92 1.14-34.02 5.64-50.29 5.11-12.89 12.35-24.88 20.63-35.96 6.42-7.6 13.97-14.21 22.14-19.87 13.03-10.48 29.3-15.749997 45.34-19.599997z" fill="#feffff" transform="translate(-21.297 -36.54) scale(1.01618)"/><path d="M440.70335 113.80182c13.91-1.93 28.56.65 40.68 7.85 12.8 7.48 21.66 21.19 23.55 35.86 2.07 10.92-.08 22.26-4.12 32.48-5.95 14.57-18.37 26.81-33.71 31.04-13.78 3.93-28.66 1.9-41.75-3.5-13.34-5.87-23.7-17.92-27.59-31.95-4.01-14.47-2.13-30.4 4.78-43.7 7.31-14.67 21.76-25.88 38.16-28.08zM202.66335 115.53182c10.75-1.17 22.07-1.52 32.39 2.27 7.21 2.48 14.09 6.19 19.72 11.37 7.53 7.57 13.02 17.34 14.79 27.92 3.42 18.5-2.58 38.53-15.77 51.99-10.43 11.26-26.41 16.11-41.48 15.06-11.64-1.11-23.42-4.51-32.74-11.83-12.23-9.56-19.45-25.16-18.87-40.67-.78-19.58 9.37-39.04 25.69-49.8 5.03-2.99 10.58-5 16.27-6.31z" fill="#53696a" transform="translate(-21.297 -36.54) scale(1.01618)"/><path d="m 87.913352,129.03182 c 0.86,-0.07 1.73,-0.14 2.59,-0.21 -5.22,7.54 -11.35,14.55 -14.99,23.06 -9.94,19.5 -14.08,41.83 -12.21,63.61 0.72,8.45 3.11,16.6 4.9,24.85 -0.29,0.45 -0.86,1.34 -1.14,1.78 -1.56,-7.15 -3.97,-14.14 -4.67,-21.46 -0.73,-7.66 -1.87,-15.37 -0.89,-23.07 1.17,-18.99 6.8,-37.83 16.87,-54.01 3.01,-4.97 6.96,-9.32 9.54,-14.55 z" fill="#c3d8dd" transform="translate(-21.297 -36.54) scale(1.01618)"/><path d="m 470.65335,133.78182 c 7.1,-1.56 15.65,2.18 18.15,9.31 2.81,7.55 -0.62,17.53 -8.39,20.59 -7.97,3.72 -18.99,-0.75 -21.5,-9.35 -0.44,-4.23 -0.92,-8.92 1.38,-12.72 2.02,-4.05 6.03,-6.79 10.36,-7.83 z" fill="#feffff" transform="translate(-21.297 -36.54) scale(1.01618)"/><path d="m 506.34335,133.74182 c 1.09,0.53 2.22,1.01 3.35,1.48 5.35,9.73 11.71,18.99 15.46,29.51 3.08,10.09 5.84,20.35 6.81,30.88 0.13,5.68 0.01,11.37 0.05,17.06 -0.68,11.8 -3.98,23.19 -6.91,34.58 -0.97,0.78 -1.93,1.56 -2.85,2.39 0.71,-2.36 1.33,-4.75 2.07,-7.1 7.11,-20.93 7.94,-43.92 2.77,-65.38 -3.75,-15.77 -11.53,-30.21 -20.75,-43.42 z" fill="#c3d8dd" transform="translate(-21.297 -36.54) scale(1.01618)"/><path d="m 233.83335,135.28182 c 5.33,-1.07 11.5,-0.65 15.67,3.23 7.36,6.03 6.28,18.64 -1.02,24.28 -7.45,6.24 -20.6,3.13 -24.26,-5.91 -3.5,-8.17 1.02,-18.9 9.61,-21.6 z" fill="#feffff" transform="translate(-21.297 -36.54) scale(1.01618)"/><path d="m 159.73335,165.49182 c 1.38,3.59 0.61,7.56 0.3,11.28 -1.01,-3.68 -0.67,-7.54 -0.3,-11.28 z" fill="#c3d8dd" transform="translate(-21.297 -36.54) scale(1.01618)"/><path d="m 272.72335,288.03182 c 4.76,-1.32 9.76,-0.66 14.63,-0.58 9.02,0.46 18.05,0.54 27.08,0.52 6.57,-0.4 12.23,6.97 10.36,13.25 -1.74,6.08 -4.86,11.65 -7.31,17.46 -4.29,10.03 -8.65,20.02 -13.21,29.93 -2.43,6.14 -11.03,8.26 -16.19,4.29 -2.88,-2.34 -4.28,-5.92 -5.6,-9.27 -4.12,-11.13 -8.84,-22.03 -13.03,-33.13 -1.54,-4.16 -3.82,-8.25 -3.82,-12.79 -0.13,-4.34 3.04,-8.34 7.09,-9.68 z" fill="#53696a" transform="translate(-21.297 -36.54) scale(1.01618)"/><path d="m 208.13335,385.33182 c 27.1,-11.78 56.56,-19.03 86.24,-18.13 37.72,0.53 74.24,13.92 106.42,32.98 29.73,17.55 56.36,39.95 80.39,64.65 4.84,4.87 9,10.39 14.13,14.98 0.72,-0.69 1.44,-1.39 2.15,-2.09 -1.9,6.47 -5.69,12.14 -9,17.96 -8.61,14.56 -19.12,28 -31.42,39.64 -11.29,10.39 -23.89,19.31 -37.4,26.57 -30.58,16.02 -65.06,23.19 -99.3,25.15 -14.32,-0.09 -28.65,-0.07 -42.97,0 -40.13,-2.38 -80.91,-10.79 -115.83,-31.52 -14.79,-8.67 -28.29,-19.56 -39.81,-32.26 -11.01,-11.41 -19.65,-24.86 -27.349998,-38.65 -2.15,-4.17 -4.58,-8.24 -5.8,-12.8 12.439998,-11.88 24.649998,-24.04 37.949998,-34.98 24.86,-20.52 51.94,-38.68 81.6,-51.5 z" fill="#c3d8dd" transform="translate(-21.297 -36.54) scale(1.01618)"/></svg>